<svg width="21" height="20" viewBox="0 0 21 20" fill="none" xmlns="http://www.w3.org/2000/svg">
<path d="M14.4219 11.4219L11.0886 14.7553C10.7632 15.0807 10.2355 15.0807 9.91009 14.7553L6.57676 11.4219C6.25132 11.0965 6.25132 10.5689 6.57676 10.2434C6.9022 9.91799 7.42983 9.91799 7.75527 10.2434L9.66602 12.1542V2.49935C9.66602 2.03911 10.0391 1.66602 10.4993 1.66602C10.9596 1.66602 11.3327 2.03911 11.3327 2.49935V12.1542L13.2434 10.2434C13.5689 9.91799 14.0965 9.91799 14.4219 10.2434C14.7474 10.5689 14.7474 11.0965 14.4219 11.4219Z" fill="#3E6F26"/>
<path d="M3.83268 14.5827C3.83268 14.1224 3.45959 13.7493 2.99935 13.7493C2.53911 13.7493 2.16602 14.1224 2.16602 14.5827V15.8327C2.16602 17.6736 3.6584 19.166 5.49935 19.166H15.4993C17.3403 19.166 18.8327 17.6736 18.8327 15.8327V14.5827C18.8327 14.1224 18.4596 13.7493 17.9993 13.7493C17.5391 13.7493 17.166 14.1224 17.166 14.5827V15.8327C17.166 16.7532 16.4198 17.4993 15.4993 17.4993H5.49935C4.57887 17.4993 3.83268 16.7532 3.83268 15.8327V14.5827Z" fill="#3E6F26"/>
</svg>
